<mxfile host="app.diagrams.net" modified="2023-10-28T22:29:22.253Z" agent="Mozilla/5.0 (Macintosh; Intel Mac OS X 10_15_7) AppleWebKit/605.1.15 (KHTML, like Gecko) Version/17.0 Safari/605.1.15" etag="dhGo7jkQLRj47Fo34qmS" version="22.0.8" type="device">
  <diagram name="Page-1" id="htFCysOncU4eErCBTmEX">
    <mxGraphModel dx="954" dy="647" grid="1" gridSize="10" guides="1" tooltips="1" connect="1" arrows="1" fold="1" page="1" pageScale="1" pageWidth="850" pageHeight="1100" math="0" shadow="0">
      <root>
        <mxCell id="0" />
        <mxCell id="1" parent="0" />
        <mxCell id="RxtHRBdmFdkH2Ec5A_Ft-28" value="" style="rounded=0;whiteSpace=wrap;html=1;" vertex="1" parent="1">
          <mxGeometry x="70" y="410" width="480" height="180" as="geometry" />
        </mxCell>
        <mxCell id="RxtHRBdmFdkH2Ec5A_Ft-1" value="&lt;font style=&quot;font-size: 24px;&quot;&gt;WhatsApp System Design&lt;/font&gt;" style="text;html=1;strokeColor=none;fillColor=none;align=center;verticalAlign=middle;whiteSpace=wrap;rounded=0;" vertex="1" parent="1">
          <mxGeometry x="190" y="40" width="390" height="30" as="geometry" />
        </mxCell>
        <mxCell id="RxtHRBdmFdkH2Ec5A_Ft-8" value="Functional Requirements&amp;nbsp;" style="swimlane;fontStyle=0;childLayout=stackLayout;horizontal=1;startSize=30;horizontalStack=0;resizeParent=1;resizeParentMax=0;resizeLast=0;collapsible=1;marginBottom=0;whiteSpace=wrap;html=1;fontSize=16;" vertex="1" parent="1">
          <mxGeometry x="70" y="120" width="480" height="120" as="geometry" />
        </mxCell>
        <mxCell id="RxtHRBdmFdkH2Ec5A_Ft-9" value="- Send messages from one person to another" style="text;strokeColor=none;fillColor=none;align=left;verticalAlign=middle;spacingLeft=4;spacingRight=4;overflow=hidden;points=[[0,0.5],[1,0.5]];portConstraint=eastwest;rotatable=0;whiteSpace=wrap;html=1;fontSize=16;" vertex="1" parent="RxtHRBdmFdkH2Ec5A_Ft-8">
          <mxGeometry y="30" width="480" height="30" as="geometry" />
        </mxCell>
        <mxCell id="RxtHRBdmFdkH2Ec5A_Ft-10" value="- Send messages to a group" style="text;strokeColor=none;fillColor=none;align=left;verticalAlign=middle;spacingLeft=4;spacingRight=4;overflow=hidden;points=[[0,0.5],[1,0.5]];portConstraint=eastwest;rotatable=0;whiteSpace=wrap;html=1;fontSize=16;" vertex="1" parent="RxtHRBdmFdkH2Ec5A_Ft-8">
          <mxGeometry y="60" width="480" height="30" as="geometry" />
        </mxCell>
        <mxCell id="RxtHRBdmFdkH2Ec5A_Ft-11" value="- See status of message (Sent/Delivered/Read)" style="text;strokeColor=none;fillColor=none;align=left;verticalAlign=middle;spacingLeft=4;spacingRight=4;overflow=hidden;points=[[0,0.5],[1,0.5]];portConstraint=eastwest;rotatable=0;whiteSpace=wrap;html=1;fontSize=16;" vertex="1" parent="RxtHRBdmFdkH2Ec5A_Ft-8">
          <mxGeometry y="90" width="480" height="30" as="geometry" />
        </mxCell>
        <mxCell id="RxtHRBdmFdkH2Ec5A_Ft-12" style="edgeStyle=orthogonalEdgeStyle;rounded=0;orthogonalLoop=1;jettySize=auto;html=1;exitX=1;exitY=0.5;exitDx=0;exitDy=0;" edge="1" parent="RxtHRBdmFdkH2Ec5A_Ft-8" source="RxtHRBdmFdkH2Ec5A_Ft-10" target="RxtHRBdmFdkH2Ec5A_Ft-10">
          <mxGeometry relative="1" as="geometry" />
        </mxCell>
        <mxCell id="RxtHRBdmFdkH2Ec5A_Ft-13" value="Non Functional Requirements&amp;nbsp;" style="swimlane;fontStyle=0;childLayout=stackLayout;horizontal=1;startSize=30;horizontalStack=0;resizeParent=1;resizeParentMax=0;resizeLast=0;collapsible=1;marginBottom=0;whiteSpace=wrap;html=1;fontSize=16;" vertex="1" parent="1">
          <mxGeometry x="570" y="120" width="490" height="180" as="geometry" />
        </mxCell>
        <mxCell id="RxtHRBdmFdkH2Ec5A_Ft-14" value="Consistency" style="text;strokeColor=none;fillColor=none;align=left;verticalAlign=middle;spacingLeft=4;spacingRight=4;overflow=hidden;points=[[0,0.5],[1,0.5]];portConstraint=eastwest;rotatable=0;whiteSpace=wrap;html=1;fontSize=16;" vertex="1" parent="RxtHRBdmFdkH2Ec5A_Ft-13">
          <mxGeometry y="30" width="490" height="30" as="geometry" />
        </mxCell>
        <mxCell id="RxtHRBdmFdkH2Ec5A_Ft-15" value="Scalability" style="text;strokeColor=none;fillColor=none;align=left;verticalAlign=middle;spacingLeft=4;spacingRight=4;overflow=hidden;points=[[0,0.5],[1,0.5]];portConstraint=eastwest;rotatable=0;whiteSpace=wrap;html=1;fontSize=16;" vertex="1" parent="RxtHRBdmFdkH2Ec5A_Ft-13">
          <mxGeometry y="60" width="490" height="30" as="geometry" />
        </mxCell>
        <mxCell id="RxtHRBdmFdkH2Ec5A_Ft-18" value="Low Latency" style="text;strokeColor=none;fillColor=none;align=left;verticalAlign=middle;spacingLeft=4;spacingRight=4;overflow=hidden;points=[[0,0.5],[1,0.5]];portConstraint=eastwest;rotatable=0;whiteSpace=wrap;html=1;fontSize=16;" vertex="1" parent="RxtHRBdmFdkH2Ec5A_Ft-13">
          <mxGeometry y="90" width="490" height="30" as="geometry" />
        </mxCell>
        <mxCell id="RxtHRBdmFdkH2Ec5A_Ft-16" value="Availability&lt;br&gt;Security&lt;br&gt;&lt;br&gt;" style="text;strokeColor=none;fillColor=none;align=left;verticalAlign=middle;spacingLeft=4;spacingRight=4;overflow=hidden;points=[[0,0.5],[1,0.5]];portConstraint=eastwest;rotatable=0;whiteSpace=wrap;html=1;fontSize=16;" vertex="1" parent="RxtHRBdmFdkH2Ec5A_Ft-13">
          <mxGeometry y="120" width="490" height="60" as="geometry" />
        </mxCell>
        <mxCell id="RxtHRBdmFdkH2Ec5A_Ft-17" style="edgeStyle=orthogonalEdgeStyle;rounded=0;orthogonalLoop=1;jettySize=auto;html=1;exitX=1;exitY=0.5;exitDx=0;exitDy=0;" edge="1" parent="RxtHRBdmFdkH2Ec5A_Ft-13" source="RxtHRBdmFdkH2Ec5A_Ft-15" target="RxtHRBdmFdkH2Ec5A_Ft-15">
          <mxGeometry relative="1" as="geometry" />
        </mxCell>
        <mxCell id="RxtHRBdmFdkH2Ec5A_Ft-22" value="Assumptions" style="swimlane;fontStyle=0;childLayout=stackLayout;horizontal=1;startSize=30;horizontalStack=0;resizeParent=1;resizeParentMax=0;resizeLast=0;collapsible=1;marginBottom=0;whiteSpace=wrap;html=1;fontSize=16;" vertex="1" parent="1">
          <mxGeometry x="70" y="320" width="480" height="90" as="geometry" />
        </mxCell>
        <mxCell id="RxtHRBdmFdkH2Ec5A_Ft-23" value="2 Billion Users" style="text;strokeColor=none;fillColor=none;align=left;verticalAlign=middle;spacingLeft=4;spacingRight=4;overflow=hidden;points=[[0,0.5],[1,0.5]];portConstraint=eastwest;rotatable=0;whiteSpace=wrap;html=1;fontSize=16;" vertex="1" parent="RxtHRBdmFdkH2Ec5A_Ft-22">
          <mxGeometry y="30" width="480" height="30" as="geometry" />
        </mxCell>
        <mxCell id="RxtHRBdmFdkH2Ec5A_Ft-24" value="1 Billion Daily Active Users" style="text;strokeColor=none;fillColor=none;align=left;verticalAlign=middle;spacingLeft=4;spacingRight=4;overflow=hidden;points=[[0,0.5],[1,0.5]];portConstraint=eastwest;rotatable=0;whiteSpace=wrap;html=1;fontSize=16;" vertex="1" parent="RxtHRBdmFdkH2Ec5A_Ft-22">
          <mxGeometry y="60" width="480" height="30" as="geometry" />
        </mxCell>
        <mxCell id="RxtHRBdmFdkH2Ec5A_Ft-26" style="edgeStyle=orthogonalEdgeStyle;rounded=0;orthogonalLoop=1;jettySize=auto;html=1;exitX=1;exitY=0.5;exitDx=0;exitDy=0;" edge="1" parent="RxtHRBdmFdkH2Ec5A_Ft-22" source="RxtHRBdmFdkH2Ec5A_Ft-24" target="RxtHRBdmFdkH2Ec5A_Ft-24">
          <mxGeometry relative="1" as="geometry" />
        </mxCell>
        <mxCell id="RxtHRBdmFdkH2Ec5A_Ft-27" value="Estimates" style="swimlane;whiteSpace=wrap;html=1;" vertex="1" parent="1">
          <mxGeometry x="570" y="320" width="490" height="450" as="geometry" />
        </mxCell>
        <mxCell id="RxtHRBdmFdkH2Ec5A_Ft-30" value="&lt;h1 style=&quot;font-size: 16px;&quot;&gt;&lt;font style=&quot;font-size: 16px;&quot;&gt;Storage&lt;/font&gt;&lt;/h1&gt;&lt;p style=&quot;font-size: 16px;&quot;&gt;Message Size: 1 KB. Per User 5K. 1 B DAU&lt;/p&gt;&lt;p style=&quot;font-size: 16px;&quot;&gt;5 B Kb/day. 5 * 10^9 * 1000 = 5 * 10^12 Bytes = 5 * &lt;span style=&quot;white-space: pre;&quot;&gt;10 ^ 13 bits&lt;/span&gt;&lt;/p&gt;&lt;p style=&quot;font-size: 16px;&quot;&gt;&lt;span style=&quot;white-space: pre;&quot;&gt;1 day = 100,000 s&amp;nbsp;&lt;/span&gt;&lt;/p&gt;&lt;p style=&quot;font-size: 16px;&quot;&gt;&lt;span style=&quot;white-space: pre;&quot;&gt;Store: 30 days worth of messages: 150 GBytes&lt;/span&gt;&lt;/p&gt;&lt;p style=&quot;font-size: 16px;&quot;&gt;&lt;span style=&quot;white-space: pre;&quot;&gt;&lt;b&gt;Bandwidth&lt;/b&gt;&lt;/span&gt;&lt;/p&gt;&lt;p style=&quot;font-size: 16px;&quot;&gt;&lt;span style=&quot;white-space: pre;&quot;&gt;Per second incoming bandwidth: 5 * 10^8 bps = 500 Mbps&lt;/span&gt;&lt;/p&gt;&lt;p style=&quot;font-size: 16px;&quot;&gt;&lt;span style=&quot;white-space: pre;&quot;&gt;Per second outgoing bandwidth: 5 * 10^10 bps = 50,Gbps&lt;/span&gt;&lt;/p&gt;&lt;p style=&quot;font-size: 16px;&quot;&gt;&lt;span style=&quot;white-space: pre;&quot;&gt;&lt;b&gt;Servers&lt;/b&gt;&lt;/span&gt;&lt;/p&gt;&lt;p style=&quot;font-size: 16px;&quot;&gt;&lt;span style=&quot;white-space: pre;&quot;&gt;&lt;b&gt;10^9/10000 rps = 100,000 servers&lt;/b&gt;&lt;/span&gt;&lt;/p&gt;&lt;p style=&quot;font-size: 16px;&quot;&gt;&lt;span style=&quot;white-space: pre;&quot;&gt;&lt;b&gt;&lt;br&gt;&lt;/b&gt;&lt;/span&gt;&lt;/p&gt;" style="text;html=1;strokeColor=none;fillColor=none;spacing=5;spacingTop=-20;whiteSpace=wrap;overflow=hidden;rounded=0;" vertex="1" parent="RxtHRBdmFdkH2Ec5A_Ft-27">
          <mxGeometry y="26" width="490" height="374" as="geometry" />
        </mxCell>
        <mxCell id="RxtHRBdmFdkH2Ec5A_Ft-25" value="Messages are stored for 30 days&lt;br&gt;1 User send 5 Messages a day&lt;br&gt;Receives 100 Messages a day&lt;br&gt;&lt;br&gt;&amp;nbsp;Part of 10 groups&lt;br&gt;&amp;nbsp;Message Size is 1KB" style="text;strokeColor=none;fillColor=none;align=left;verticalAlign=middle;spacingLeft=4;spacingRight=4;overflow=hidden;points=[[0,0.5],[1,0.5]];portConstraint=eastwest;rotatable=0;whiteSpace=wrap;html=1;fontSize=16;" vertex="1" parent="1">
          <mxGeometry x="70" y="410" width="480" height="140" as="geometry" />
        </mxCell>
        <mxCell id="RxtHRBdmFdkH2Ec5A_Ft-33" value="" style="swimlane;startSize=0;" vertex="1" parent="1">
          <mxGeometry x="70" y="630" width="480" height="230" as="geometry" />
        </mxCell>
        <mxCell id="RxtHRBdmFdkH2Ec5A_Ft-34" value="&lt;h1 style=&quot;font-size: 16px;&quot;&gt;API&lt;/h1&gt;&lt;p style=&quot;font-size: 16px;&quot;&gt;POST /v1/message/:userid&lt;/p&gt;&lt;p style=&quot;font-size: 16px;&quot;&gt;POST /v1/message/:gid&lt;/p&gt;&lt;p style=&quot;font-size: 16px;&quot;&gt;GET /v1/messages/:userid&lt;/p&gt;&lt;p style=&quot;font-size: 16px;&quot;&gt;&amp;nbsp;&lt;/p&gt;" style="text;html=1;strokeColor=none;fillColor=none;spacing=5;spacingTop=-20;whiteSpace=wrap;overflow=hidden;rounded=0;" vertex="1" parent="RxtHRBdmFdkH2Ec5A_Ft-33">
          <mxGeometry x="25" y="10" width="330" height="190" as="geometry" />
        </mxCell>
        <mxCell id="RxtHRBdmFdkH2Ec5A_Ft-36" value="User 1" style="whiteSpace=wrap;html=1;aspect=fixed;" vertex="1" parent="1">
          <mxGeometry x="80" y="1100" width="80" height="80" as="geometry" />
        </mxCell>
        <mxCell id="RxtHRBdmFdkH2Ec5A_Ft-37" value="User N" style="whiteSpace=wrap;html=1;aspect=fixed;" vertex="1" parent="1">
          <mxGeometry x="80" y="1260" width="80" height="80" as="geometry" />
        </mxCell>
        <mxCell id="RxtHRBdmFdkH2Ec5A_Ft-38" value="" style="endArrow=none;dashed=1;html=1;dashPattern=1 3;strokeWidth=2;rounded=0;" edge="1" parent="1">
          <mxGeometry width="50" height="50" relative="1" as="geometry">
            <mxPoint x="120" y="1250" as="sourcePoint" />
            <mxPoint x="120" y="1190" as="targetPoint" />
          </mxGeometry>
        </mxCell>
        <mxCell id="RxtHRBdmFdkH2Ec5A_Ft-39" value="&lt;h1 style=&quot;font-size: 16px;&quot;&gt;&lt;font style=&quot;font-size: 16px;&quot;&gt;DB Schema&lt;/font&gt;&lt;/h1&gt;&lt;h1 style=&quot;font-size: 16px;&quot;&gt;&lt;span style=&quot;font-weight: 400;&quot;&gt;- Users Table&lt;/span&gt;&lt;/h1&gt;&lt;h1 style=&quot;font-size: 16px;&quot;&gt;&lt;span style=&quot;font-weight: 400; font-size: 12px;&quot;&gt;username&lt;/span&gt;&lt;/h1&gt;&lt;div&gt;email&lt;/div&gt;&lt;div&gt;&lt;br&gt;&lt;/div&gt;&lt;div&gt;&lt;span style=&quot;font-weight: 400;&quot;&gt;- User Groups Table&lt;/span&gt;&lt;/div&gt;&lt;div&gt;guid, userid, group&lt;/div&gt;&lt;div&gt;&lt;span style=&quot;font-weight: 400;&quot;&gt;- Message Table&lt;/span&gt;&lt;/div&gt;&lt;div&gt;&lt;span style=&quot;font-weight: 400;&quot;&gt;id, message&lt;/span&gt;&lt;/div&gt;&lt;div&gt;&lt;span style=&quot;font-weight: 400;&quot;&gt;&lt;br&gt;&lt;/span&gt;&lt;/div&gt;" style="text;html=1;strokeColor=none;fillColor=none;spacing=5;spacingTop=-20;whiteSpace=wrap;overflow=hidden;rounded=0;" vertex="1" parent="1">
          <mxGeometry x="70" y="900" width="340" height="170" as="geometry" />
        </mxCell>
        <mxCell id="RxtHRBdmFdkH2Ec5A_Ft-40" value="LB" style="rhombus;whiteSpace=wrap;html=1;fillColor=#d5e8d4;strokeColor=#82b366;" vertex="1" parent="1">
          <mxGeometry x="210" y="1170" width="80" height="80" as="geometry" />
        </mxCell>
        <mxCell id="RxtHRBdmFdkH2Ec5A_Ft-41" value="" style="whiteSpace=wrap;html=1;aspect=fixed;" vertex="1" parent="1">
          <mxGeometry x="320" y="1100" width="260" height="260" as="geometry" />
        </mxCell>
        <mxCell id="RxtHRBdmFdkH2Ec5A_Ft-42" value="User Service" style="rounded=0;whiteSpace=wrap;html=1;" vertex="1" parent="1">
          <mxGeometry x="390" y="1140" width="120" height="60" as="geometry" />
        </mxCell>
        <mxCell id="RxtHRBdmFdkH2Ec5A_Ft-43" value="Message Service" style="rounded=0;whiteSpace=wrap;html=1;" vertex="1" parent="1">
          <mxGeometry x="390" y="1210" width="120" height="60" as="geometry" />
        </mxCell>
        <mxCell id="RxtHRBdmFdkH2Ec5A_Ft-44" value="User Group Service" style="rounded=0;whiteSpace=wrap;html=1;" vertex="1" parent="1">
          <mxGeometry x="390" y="1280" width="120" height="60" as="geometry" />
        </mxCell>
        <mxCell id="RxtHRBdmFdkH2Ec5A_Ft-47" value="" style="rounded=0;whiteSpace=wrap;html=1;" vertex="1" parent="1">
          <mxGeometry x="650" y="1100" width="170" height="260" as="geometry" />
        </mxCell>
        <mxCell id="RxtHRBdmFdkH2Ec5A_Ft-48" value="RDB" style="shape=cylinder3;whiteSpace=wrap;html=1;boundedLbl=1;backgroundOutline=1;size=15;" vertex="1" parent="1">
          <mxGeometry x="705" y="1130" width="60" height="80" as="geometry" />
        </mxCell>
        <mxCell id="RxtHRBdmFdkH2Ec5A_Ft-49" value="Blob Storage" style="shape=cylinder3;whiteSpace=wrap;html=1;boundedLbl=1;backgroundOutline=1;size=15;" vertex="1" parent="1">
          <mxGeometry x="710" y="1240" width="60" height="80" as="geometry" />
        </mxCell>
        <mxCell id="RxtHRBdmFdkH2Ec5A_Ft-50" value="" style="endArrow=classic;startArrow=classic;html=1;rounded=0;exitX=1;exitY=0.5;exitDx=0;exitDy=0;entryX=0;entryY=0.5;entryDx=0;entryDy=0;" edge="1" parent="1" source="RxtHRBdmFdkH2Ec5A_Ft-36" target="RxtHRBdmFdkH2Ec5A_Ft-40">
          <mxGeometry width="50" height="50" relative="1" as="geometry">
            <mxPoint x="390" y="1100" as="sourcePoint" />
            <mxPoint x="440" y="1050" as="targetPoint" />
          </mxGeometry>
        </mxCell>
        <mxCell id="RxtHRBdmFdkH2Ec5A_Ft-51" value="" style="endArrow=classic;startArrow=classic;html=1;rounded=0;exitX=1;exitY=0.5;exitDx=0;exitDy=0;" edge="1" parent="1" source="RxtHRBdmFdkH2Ec5A_Ft-37">
          <mxGeometry width="50" height="50" relative="1" as="geometry">
            <mxPoint x="390" y="1100" as="sourcePoint" />
            <mxPoint x="210" y="1210" as="targetPoint" />
          </mxGeometry>
        </mxCell>
        <mxCell id="RxtHRBdmFdkH2Ec5A_Ft-52" value="" style="endArrow=classic;startArrow=classic;html=1;rounded=0;exitX=1;exitY=0.5;exitDx=0;exitDy=0;entryX=-0.012;entryY=0.419;entryDx=0;entryDy=0;entryPerimeter=0;" edge="1" parent="1" source="RxtHRBdmFdkH2Ec5A_Ft-40" target="RxtHRBdmFdkH2Ec5A_Ft-41">
          <mxGeometry width="50" height="50" relative="1" as="geometry">
            <mxPoint x="390" y="1100" as="sourcePoint" />
            <mxPoint x="440" y="1050" as="targetPoint" />
          </mxGeometry>
        </mxCell>
        <mxCell id="RxtHRBdmFdkH2Ec5A_Ft-53" value="Cache" style="rounded=0;whiteSpace=wrap;html=1;fillColor=#d5e8d4;strokeColor=#82b366;" vertex="1" parent="1">
          <mxGeometry x="220" y="1070" width="60" height="60" as="geometry" />
        </mxCell>
        <mxCell id="RxtHRBdmFdkH2Ec5A_Ft-54" value="CDN" style="rounded=0;whiteSpace=wrap;html=1;fillColor=#d5e8d4;strokeColor=#82b366;" vertex="1" parent="1">
          <mxGeometry x="220" y="1300" width="60" height="60" as="geometry" />
        </mxCell>
        <mxCell id="RxtHRBdmFdkH2Ec5A_Ft-55" value="KAFKA" style="shape=process;whiteSpace=wrap;html=1;backgroundOutline=1;" vertex="1" parent="1">
          <mxGeometry x="580" y="1230" width="70" height="20" as="geometry" />
        </mxCell>
        <mxCell id="RxtHRBdmFdkH2Ec5A_Ft-56" value="" style="endArrow=classic;startArrow=classic;html=1;rounded=0;exitX=1;exitY=0.25;exitDx=0;exitDy=0;entryX=0;entryY=0.25;entryDx=0;entryDy=0;" edge="1" parent="1" source="RxtHRBdmFdkH2Ec5A_Ft-41" target="RxtHRBdmFdkH2Ec5A_Ft-47">
          <mxGeometry width="50" height="50" relative="1" as="geometry">
            <mxPoint x="390" y="1100" as="sourcePoint" />
            <mxPoint x="440" y="1050" as="targetPoint" />
          </mxGeometry>
        </mxCell>
        <mxCell id="RxtHRBdmFdkH2Ec5A_Ft-57" value="" style="endArrow=classic;startArrow=classic;html=1;rounded=0;exitX=1.008;exitY=0.823;exitDx=0;exitDy=0;exitPerimeter=0;entryX=-0.018;entryY=0.823;entryDx=0;entryDy=0;entryPerimeter=0;" edge="1" parent="1" source="RxtHRBdmFdkH2Ec5A_Ft-41" target="RxtHRBdmFdkH2Ec5A_Ft-47">
          <mxGeometry width="50" height="50" relative="1" as="geometry">
            <mxPoint x="390" y="1100" as="sourcePoint" />
            <mxPoint x="440" y="1050" as="targetPoint" />
          </mxGeometry>
        </mxCell>
        <mxCell id="RxtHRBdmFdkH2Ec5A_Ft-58" value="&lt;b&gt;Application Layer&lt;/b&gt;" style="text;html=1;strokeColor=none;fillColor=none;align=center;verticalAlign=middle;whiteSpace=wrap;rounded=0;" vertex="1" parent="1">
          <mxGeometry x="390" y="1060" width="110" height="30" as="geometry" />
        </mxCell>
        <mxCell id="RxtHRBdmFdkH2Ec5A_Ft-59" value="&lt;b&gt;Persistence Layer&lt;/b&gt;" style="text;html=1;strokeColor=none;fillColor=none;align=center;verticalAlign=middle;whiteSpace=wrap;rounded=0;" vertex="1" parent="1">
          <mxGeometry x="670" y="1060" width="110" height="30" as="geometry" />
        </mxCell>
        <mxCell id="RxtHRBdmFdkH2Ec5A_Ft-60" value="" style="endArrow=classic;startArrow=classic;html=1;rounded=0;exitX=0.5;exitY=0;exitDx=0;exitDy=0;entryX=0.5;entryY=1;entryDx=0;entryDy=0;" edge="1" parent="1" source="RxtHRBdmFdkH2Ec5A_Ft-54" target="RxtHRBdmFdkH2Ec5A_Ft-40">
          <mxGeometry width="50" height="50" relative="1" as="geometry">
            <mxPoint x="390" y="1270" as="sourcePoint" />
            <mxPoint x="440" y="1220" as="targetPoint" />
          </mxGeometry>
        </mxCell>
        <mxCell id="RxtHRBdmFdkH2Ec5A_Ft-61" value="" style="endArrow=classic;startArrow=classic;html=1;rounded=0;exitX=0.5;exitY=1;exitDx=0;exitDy=0;entryX=0.5;entryY=0;entryDx=0;entryDy=0;" edge="1" parent="1" source="RxtHRBdmFdkH2Ec5A_Ft-53" target="RxtHRBdmFdkH2Ec5A_Ft-40">
          <mxGeometry width="50" height="50" relative="1" as="geometry">
            <mxPoint x="390" y="1270" as="sourcePoint" />
            <mxPoint x="440" y="1220" as="targetPoint" />
          </mxGeometry>
        </mxCell>
      </root>
    </mxGraphModel>
  </diagram>
</mxfile>
